<svg width="81" height="60" viewBox="0 0 81 60" fill="none" xmlns="http://www.w3.org/2000/svg">
<path d="M31 51V33C31 31.8954 31.8954 31 33 31H43C44.1046 31 45 31.8954 45 33V51" stroke="#1C1C1C" stroke-width="3.5"/>
<path d="M2 23L37.1635 2.59399C37.7948 2.22766 38.5755 2.23428 39.2004 2.61127L73 23" stroke="#1C1C1C" stroke-width="3.5" stroke-linecap="round"/>
<path d="M14 16V50.5M63 18V50.5" stroke="#1C1C1C" stroke-width="3.5" stroke-linecap="round"/>
<path d="M64.768 34C65.5378 32.6667 67.4623 32.6667 68.2321 34L77.3253 49.75C78.0951 51.0833 77.1329 52.75 75.5933 52.75H57.4067C55.8671 52.75 54.9049 51.0833 55.6747 49.75L64.768 34Z" fill="#FFCD00"/>
<path d="M3.5 51H72.5" stroke="#1C1C1C" stroke-width="3.5" stroke-linecap="round"/>
</svg>
