<svg width="24" height="29" viewBox="0 0 24 29" fill="none" xmlns="http://www.w3.org/2000/svg">
<path d="M2.03423 15.3333C2.45769 20.4663 6.75778 24.5 12 24.5C14.177 24.5 16.1915 23.8044 17.8333 22.6233M2.03423 15.3333C2.01156 15.0586 2 14.7806 2 14.5C2 11.1541 3.64322 8.19204 6.16667 6.37675M2.03423 15.3333H2.83333H4.5C5.44637 15.3333 6.26992 14.8304 6.69441 14.0886C7.0259 13.5094 7.55964 12.942 8.25 12.942H9.08333C10.2339 12.942 11.1667 12.0498 11.1667 10.9493C11.1667 9.84871 10.2339 8.95652 9.08333 8.95652H8.66667C7.28595 8.95652 6.16667 7.8859 6.16667 6.56522V6.37675M6.16667 6.37675C7.80853 5.19563 9.82303 4.5 12 4.5C16.955 4.5 21.0683 8.10381 21.8617 12.8333M21.8617 12.8333C21.9527 13.3753 22 13.9321 22 14.5C22 17.8459 20.3568 20.808 17.8333 22.6233M21.8617 12.8333H21.1667H19.5C18.5536 12.8333 17.7301 13.3592 17.3056 14.1346C16.9741 14.7402 16.4404 15.3333 15.75 15.3333H14.9167C13.7661 15.3333 12.8333 16.2661 12.8333 17.4167C12.8333 18.5673 13.7661 19.5 14.9167 19.5H15.3333C16.714 19.5 17.8333 20.6193 17.8333 22V22.6233" stroke="#1C1C1C" stroke-width="1.5"/>
</svg>
