<svg width="63" height="55" viewBox="0 0 63 55" fill="none" xmlns="http://www.w3.org/2000/svg">
<path d="M19.4143 14.3435H6C3.79086 14.3435 2 16.1344 2 18.3435V47C2 49.2091 3.79086 51 6 51H51C53.2091 51 55 49.2091 55 47V18.3435C55 16.1344 53.2091 14.3435 51 14.3435H37.5857M19.4143 14.3435V6C19.4143 3.79086 21.2051 2 23.4143 2H33.5857C35.7949 2 37.5857 3.79086 37.5857 6V14.3435M19.4143 14.3435H37.5857" stroke="#1C1C1C" stroke-width="3.5"/>
<path d="M18.5 23H38.5" stroke="#1C1C1C" stroke-width="3" stroke-linecap="round"/>
<rect x="44" y="36" width="19" height="19" rx="4" fill="#FFCD00"/>
</svg>
