<svg width="84" height="51" viewBox="0 0 84 51" fill="none" xmlns="http://www.w3.org/2000/svg">
<rect x="61" y="28" width="23" height="23" rx="11.5" fill="#FFCD00"/>
<mask id="path-2-inside-1_318_4721" fill="white">
<path d="M10.7693 29.9977C9.7875 31.9927 8.21425 32.8372 6.05652 32.7498C4.61495 32.6922 3.16877 32.7451 1.72489 32.7359C0.60675 32.729 0.0869539 32.2366 0.0107172 31.1321C-0.00545427 30.902 0.00147634 30.6719 0.00147634 30.4418C0.00147634 21.0926 0.00147634 11.7434 0.00147634 2.39417C0.00378655 0.507298 0.26946 0.129924 2.15459 0.0355807C6.7542 -0.194525 11.1598 0.693684 15.3297 2.63578C16.9122 3.37212 17.5636 4.80108 17.7531 6.54988H18.6333C22.3296 6.54988 26.0259 6.56599 29.7222 6.52917C30.2005 6.52457 30.7364 6.34739 31.1407 6.08737C33.0882 4.83329 35.0704 3.69657 37.4175 3.3353C39.0994 3.07758 40.6888 3.39513 42.2343 4.00491C46.1432 5.54432 50.0428 7.09983 53.9494 8.64845C54.2104 8.752 54.4761 8.84404 54.7949 8.96139C55.2916 7.09983 56.5876 6.14029 58.2925 5.53281C62.8899 3.89446 67.6119 3.20644 72.4841 3.57001C73.4128 3.63904 73.8841 4.10846 73.9811 5.03578C74.0042 5.26359 73.9996 5.496 73.9996 5.7261C73.9996 15.1604 73.9996 24.5971 73.9996 34.0314C73.9996 34.3191 73.9996 34.609 73.958 34.892C73.8379 35.7181 73.3481 36.1852 72.5072 36.1944C70.6013 36.2151 68.6931 36.2635 66.7918 36.1714C65.1354 36.0909 63.9872 35.106 63.2087 33.7208C62.4024 34.2247 61.6239 34.6964 60.8684 35.1981C60.7367 35.2855 60.6212 35.5087 60.6212 35.6675C60.612 39.577 58.5444 41.4915 54.6655 41.1601C54.6101 41.1555 54.5523 41.167 54.416 41.1785C54.0048 42.5661 53.2355 43.7419 51.8956 44.4667C50.558 45.1893 49.1626 45.3089 47.6841 44.7958C47.5917 44.9523 47.4923 45.088 47.4253 45.2376C46.3534 47.6491 44.1564 48.7789 41.5782 48.1876C41.1185 48.0817 40.936 48.1623 40.7096 48.5649C39.2518 51.1559 36.3595 51.7611 33.9199 49.9847C25.8642 44.1193 18.2244 37.773 11.3492 30.5476C11.1736 30.3636 10.9819 30.1979 10.774 30L10.7693 29.9977ZM27.0979 9.58268C23.956 9.58268 20.895 9.60799 17.8386 9.56427C17.1547 9.55507 16.9029 9.79898 16.7204 10.4065C15.2188 15.4343 13.7195 20.4644 12.1439 25.4692C11.8621 26.3666 12.0215 26.9051 12.6429 27.5724C17.8316 33.1639 23.5378 38.1895 29.5236 42.9043C31.5612 44.5082 33.6542 46.0407 35.7242 47.6031C36.3133 48.0472 36.944 48.1208 37.5746 47.725C38.1545 47.3615 38.3693 46.777 38.1822 46.1534C38.0667 45.7668 37.771 45.401 37.4753 45.1018C35.6525 43.2564 33.8021 41.4386 31.977 39.5954C31.7021 39.317 31.4156 38.981 31.3117 38.6198C31.1084 37.9133 31.3671 37.3035 32.0348 36.9423C32.7509 36.5534 33.3654 36.7812 33.9083 37.322C36.2971 39.7036 38.6858 42.0829 41.0769 44.4598C42.1419 45.5183 43.3224 45.6472 44.198 44.8142C45.1013 43.9559 44.995 42.7594 43.9115 41.6387C43.029 40.7275 42.1396 39.8255 41.2548 38.9166C40.0304 37.6556 38.8013 36.3992 37.5862 35.129C37.0479 34.5676 36.937 33.9118 37.339 33.2353C37.7109 32.6094 38.3301 32.4092 38.9862 32.614C39.372 32.7336 39.7231 33.0535 40.0165 33.3526C42.5785 35.9666 45.1105 38.6105 47.6887 41.2084C48.0722 41.5927 48.6151 41.9218 49.1372 42.0437C50.0428 42.2554 50.8883 41.7538 51.2903 40.9645C51.7269 40.1039 51.5814 39.2157 50.8006 38.4541C48.1785 35.8999 45.5402 33.3618 42.9089 30.8169C42.7218 30.6374 42.5277 30.4602 42.3706 30.2577C41.9825 29.7538 41.8485 29.1279 42.2759 28.6723C42.6247 28.3018 43.2092 27.9889 43.7036 27.9635C44.101 27.9428 44.5861 28.3225 44.9211 28.6424C48.0306 31.6038 51.1124 34.5952 54.2127 37.5682C55.1715 38.4863 56.315 38.5093 57.1213 37.6648C57.9137 36.8341 57.8351 35.6445 56.8787 34.7678C50.923 29.3212 44.9604 23.8815 38.9792 18.4602C38.7621 18.2646 38.3 18.1679 38.0113 18.2462C36.274 18.7156 34.8139 19.7096 33.5387 20.9338C32.1064 22.3075 30.4061 23.0876 28.484 23.3476C26.0467 23.6767 23.2398 22.5676 22.727 19.3024C22.4058 17.259 23.0689 15.4343 24.15 13.7568C25.0487 12.3624 26.0583 11.0416 27.0909 9.58498L27.0979 9.58268ZM25.5708 18.2876C25.6725 19.7235 26.3401 20.4253 27.7378 20.3862C29.0477 20.3493 30.2143 19.8891 31.1915 19.0055C33.2476 17.1509 35.4747 15.6345 38.2746 15.0937C39.2149 14.9119 39.8617 15.1766 40.5294 15.7886C46.2841 21.0627 52.0573 26.3183 57.8305 31.5739C59.2305 32.8487 59.5932 32.8326 61.0093 31.5003C61.2196 31.3047 61.4668 31.1091 61.5777 30.8606C61.7116 30.5614 61.8549 30.1565 61.7555 29.8849C59.6948 24.2289 57.6064 18.5821 55.4995 12.9422C55.3955 12.6615 55.1229 12.3463 54.8503 12.2381C50.1537 10.3558 45.4455 8.49658 40.7327 6.65343C39.2472 6.07356 37.7364 6.10808 36.2648 6.71096C31.7321 8.56791 28.618 11.9413 26.2824 16.1062C25.915 16.762 25.7995 17.5582 25.5685 18.2899L25.5708 18.2876ZM70.9409 6.5844C70.8323 6.53838 70.7815 6.50156 70.7307 6.49926C66.5931 6.39341 62.5826 7.04691 58.7338 8.58172C57.7728 8.96369 57.5001 9.64711 57.8836 10.6872C60.5173 17.8435 63.1463 24.9998 65.8377 32.1354C66.0132 32.6002 66.6532 33.1363 67.1314 33.1939C68.3743 33.3434 69.6449 33.2445 70.9409 33.2445V6.5844ZM3.06943 3.02926V29.7837C4.08823 29.7837 5.06313 29.7837 6.03804 29.7837C7.4565 29.7814 7.80304 29.5306 8.20963 28.196C10.2357 21.5298 12.264 14.8636 14.2855 8.19744C15.0155 5.79283 14.9092 5.55812 12.5089 4.67222C9.48717 3.5585 6.37302 2.94412 3.07174 3.02926H3.06943Z"/>
</mask>
<path d="M10.7693 29.9977C9.7875 31.9927 8.21425 32.8372 6.05652 32.7498C4.61495 32.6922 3.16877 32.7451 1.72489 32.7359C0.60675 32.729 0.0869539 32.2366 0.0107172 31.1321C-0.00545427 30.902 0.00147634 30.6719 0.00147634 30.4418C0.00147634 21.0926 0.00147634 11.7434 0.00147634 2.39417C0.00378655 0.507298 0.26946 0.129924 2.15459 0.0355807C6.7542 -0.194525 11.1598 0.693684 15.3297 2.63578C16.9122 3.37212 17.5636 4.80108 17.7531 6.54988H18.6333C22.3296 6.54988 26.0259 6.56599 29.7222 6.52917C30.2005 6.52457 30.7364 6.34739 31.1407 6.08737C33.0882 4.83329 35.0704 3.69657 37.4175 3.3353C39.0994 3.07758 40.6888 3.39513 42.2343 4.00491C46.1432 5.54432 50.0428 7.09983 53.9494 8.64845C54.2104 8.752 54.4761 8.84404 54.7949 8.96139C55.2916 7.09983 56.5876 6.14029 58.2925 5.53281C62.8899 3.89446 67.6119 3.20644 72.4841 3.57001C73.4128 3.63904 73.8841 4.10846 73.9811 5.03578C74.0042 5.26359 73.9996 5.496 73.9996 5.7261C73.9996 15.1604 73.9996 24.5971 73.9996 34.0314C73.9996 34.3191 73.9996 34.609 73.958 34.892C73.8379 35.7181 73.3481 36.1852 72.5072 36.1944C70.6013 36.2151 68.6931 36.2635 66.7918 36.1714C65.1354 36.0909 63.9872 35.106 63.2087 33.7208C62.4024 34.2247 61.6239 34.6964 60.8684 35.1981C60.7367 35.2855 60.6212 35.5087 60.6212 35.6675C60.612 39.577 58.5444 41.4915 54.6655 41.1601C54.6101 41.1555 54.5523 41.167 54.416 41.1785C54.0048 42.5661 53.2355 43.7419 51.8956 44.4667C50.558 45.1893 49.1626 45.3089 47.6841 44.7958C47.5917 44.9523 47.4923 45.088 47.4253 45.2376C46.3534 47.6491 44.1564 48.7789 41.5782 48.1876C41.1185 48.0817 40.936 48.1623 40.7096 48.5649C39.2518 51.1559 36.3595 51.7611 33.9199 49.9847C25.8642 44.1193 18.2244 37.773 11.3492 30.5476C11.1736 30.3636 10.9819 30.1979 10.774 30L10.7693 29.9977ZM27.0979 9.58268C23.956 9.58268 20.895 9.60799 17.8386 9.56427C17.1547 9.55507 16.9029 9.79898 16.7204 10.4065C15.2188 15.4343 13.7195 20.4644 12.1439 25.4692C11.8621 26.3666 12.0215 26.9051 12.6429 27.5724C17.8316 33.1639 23.5378 38.1895 29.5236 42.9043C31.5612 44.5082 33.6542 46.0407 35.7242 47.6031C36.3133 48.0472 36.944 48.1208 37.5746 47.725C38.1545 47.3615 38.3693 46.777 38.1822 46.1534C38.0667 45.7668 37.771 45.401 37.4753 45.1018C35.6525 43.2564 33.8021 41.4386 31.977 39.5954C31.7021 39.317 31.4156 38.981 31.3117 38.6198C31.1084 37.9133 31.3671 37.3035 32.0348 36.9423C32.7509 36.5534 33.3654 36.7812 33.9083 37.322C36.2971 39.7036 38.6858 42.0829 41.0769 44.4598C42.1419 45.5183 43.3224 45.6472 44.198 44.8142C45.1013 43.9559 44.995 42.7594 43.9115 41.6387C43.029 40.7275 42.1396 39.8255 41.2548 38.9166C40.0304 37.6556 38.8013 36.3992 37.5862 35.129C37.0479 34.5676 36.937 33.9118 37.339 33.2353C37.7109 32.6094 38.3301 32.4092 38.9862 32.614C39.372 32.7336 39.7231 33.0535 40.0165 33.3526C42.5785 35.9666 45.1105 38.6105 47.6887 41.2084C48.0722 41.5927 48.6151 41.9218 49.1372 42.0437C50.0428 42.2554 50.8883 41.7538 51.2903 40.9645C51.7269 40.1039 51.5814 39.2157 50.8006 38.4541C48.1785 35.8999 45.5402 33.3618 42.9089 30.8169C42.7218 30.6374 42.5277 30.4602 42.3706 30.2577C41.9825 29.7538 41.8485 29.1279 42.2759 28.6723C42.6247 28.3018 43.2092 27.9889 43.7036 27.9635C44.101 27.9428 44.5861 28.3225 44.9211 28.6424C48.0306 31.6038 51.1124 34.5952 54.2127 37.5682C55.1715 38.4863 56.315 38.5093 57.1213 37.6648C57.9137 36.8341 57.8351 35.6445 56.8787 34.7678C50.923 29.3212 44.9604 23.8815 38.9792 18.4602C38.7621 18.2646 38.3 18.1679 38.0113 18.2462C36.274 18.7156 34.8139 19.7096 33.5387 20.9338C32.1064 22.3075 30.4061 23.0876 28.484 23.3476C26.0467 23.6767 23.2398 22.5676 22.727 19.3024C22.4058 17.259 23.0689 15.4343 24.15 13.7568C25.0487 12.3624 26.0583 11.0416 27.0909 9.58498L27.0979 9.58268ZM25.5708 18.2876C25.6725 19.7235 26.3401 20.4253 27.7378 20.3862C29.0477 20.3493 30.2143 19.8891 31.1915 19.0055C33.2476 17.1509 35.4747 15.6345 38.2746 15.0937C39.2149 14.9119 39.8617 15.1766 40.5294 15.7886C46.2841 21.0627 52.0573 26.3183 57.8305 31.5739C59.2305 32.8487 59.5932 32.8326 61.0093 31.5003C61.2196 31.3047 61.4668 31.1091 61.5777 30.8606C61.7116 30.5614 61.8549 30.1565 61.7555 29.8849C59.6948 24.2289 57.6064 18.5821 55.4995 12.9422C55.3955 12.6615 55.1229 12.3463 54.8503 12.2381C50.1537 10.3558 45.4455 8.49658 40.7327 6.65343C39.2472 6.07356 37.7364 6.10808 36.2648 6.71096C31.7321 8.56791 28.618 11.9413 26.2824 16.1062C25.915 16.762 25.7995 17.5582 25.5685 18.2899L25.5708 18.2876ZM70.9409 6.5844C70.8323 6.53838 70.7815 6.50156 70.7307 6.49926C66.5931 6.39341 62.5826 7.04691 58.7338 8.58172C57.7728 8.96369 57.5001 9.64711 57.8836 10.6872C60.5173 17.8435 63.1463 24.9998 65.8377 32.1354C66.0132 32.6002 66.6532 33.1363 67.1314 33.1939C68.3743 33.3434 69.6449 33.2445 70.9409 33.2445V6.5844ZM3.06943 3.02926V29.7837C4.08823 29.7837 5.06313 29.7837 6.03804 29.7837C7.4565 29.7814 7.80304 29.5306 8.20963 28.196C10.2357 21.5298 12.264 14.8636 14.2855 8.19744C15.0155 5.79283 14.9092 5.55812 12.5089 4.67222C9.48717 3.5585 6.37302 2.94412 3.07174 3.02926H3.06943Z" stroke="#1C1C1C" stroke-width="6" mask="url(#path-2-inside-1_318_4721)"/>
</svg>
